<?xml version="1.0" encoding="UTF-8"?>
<!-- Generator: Adobe Illustrator 27.1.1, SVG Export Plug-In . SVG Version: 6.00 Build 0)  -->
<svg xmlns="http://www.w3.org/2000/svg" xmlns:xlink="http://www.w3.org/1999/xlink" version="1.1" id="Ebene_1" x="0px" y="0px" viewBox="0 0 120 120" style="enable-background:new 0 0 120 120;" xml:space="preserve">
<style type="text/css">
	.st0{fill:#C5E6FF;}
	.st1{fill:none;stroke:#C5E6FF;stroke-width:2.5;stroke-linecap:round;stroke-miterlimit:10;}
	.st2{fill:none;stroke:#FFFFFF;stroke-width:2;stroke-miterlimit:10;}
	.st3{fill:none;stroke:#FFFFFF;stroke-width:1.5898;stroke-miterlimit:10;}
</style>
<g>
	<circle class="st0" cx="60" cy="54.6" r="48.1"></circle>
	<path class="st1" d="M2.5,56c0,31.8,25.7,57.5,57.5,57.5s57.5-25.7,57.5-57.5"></path>
	<g>
		<g>
			<path class="st2" d="M67.4,76.9c0.1,0,0.2,0,0.3-0.1c0.1,0,6.2-3.6,11.8-9.3C86.8,60,89.9,52.2,88.2,45c-0.8-4.2-4-8.9-9.1-9.9     c0,0-1.8-0.4-4.2,0c-2.1,0.3-5,1.4-7.6,4.5c-2.6-3.1-5.5-4.1-7.6-4.5c-2.4-0.4-4.1,0-4.2,0c-3,0.6-5.6,2.5-7.3,5.5     c-0.1,0.2-0.1,0.6,0.2,0.7c0.2,0.1,0.6,0.1,0.7-0.2c1.6-2.7,4-4.5,6.7-5c0.3-0.1,6.5-1.5,11.1,4.6c0.2,0.3,0.6,0.3,0.8,0     c4.7-6.1,11.1-4.6,11.1-4.6c4.6,0.9,7.5,5.2,8.3,9.1c3.7,15.7-17.1,29-19.7,30.6c-1-0.6-5-3.1-9-6.8c-0.2-0.2-0.5-0.2-0.7,0     s-0.2,0.5,0,0.7c4.8,4.4,9.4,7.1,9.5,7.1C67.2,76.9,67.3,76.9,67.4,76.9z"></path>
		</g>
		<g>
			<path class="st3" d="M49.9,67.9L49.9,67.9c0.2,0,0.3-0.1,0.4-0.3l4.5-13.2l3.3,3.3c0.1,0.1,0.2,0.1,0.3,0.1h4     c0.2,0,0.4-0.2,0.4-0.4S62.6,57,62.4,57h-3.8l-3.7-3.7c-0.1-0.1-0.2-0.1-0.4-0.1c-0.1,0-0.3,0.1-0.3,0.3l-4.4,12.7l-7.5-21.7     c-0.1-0.2-0.2-0.3-0.4-0.3l0,0c-0.2,0-0.3,0.1-0.4,0.3l-4,12.5H24c-0.2,0-0.4,0.2-0.4,0.4s0.2,0.4,0.4,0.4h13.9     c0.2,0,0.3-0.1,0.4-0.3L42,46l7.5,21.7C49.5,67.8,49.7,67.9,49.9,67.9z"></path>
		</g>
	</g>
</g>
</svg>
