<?xml version="1.0" encoding="UTF-8"?>
<!-- Generator: Adobe Illustrator 27.1.1, SVG Export Plug-In . SVG Version: 6.00 Build 0)  -->
<svg xmlns="http://www.w3.org/2000/svg" xmlns:xlink="http://www.w3.org/1999/xlink" version="1.1" id="Ebene_1" x="0px" y="0px" viewBox="0 0 120 120" style="enable-background:new 0 0 120 120;" xml:space="preserve">
<style type="text/css">
	.st0{fill:none;stroke:#A1CBF1;stroke-width:2.5;stroke-linecap:round;stroke-miterlimit:10;}
	.st1{fill:#A1CBF1;}
	.st2{fill:none;stroke:#FFFFFF;stroke-width:3;stroke-miterlimit:10;}
	.st3{fill:none;stroke:#FFFFFF;stroke-width:2.996;stroke-miterlimit:10;}
</style>
<g>
	<path class="st0" d="M2.5,56c0,31.8,25.7,57.5,57.5,57.5s57.5-25.7,57.5-57.5"></path>
	<circle class="st1" cx="60.2" cy="54.6" r="48.1"></circle>
	<g>
		<g>
			<path class="st2" d="M66.5,63.8c-0.5,0-0.9-0.4-0.9-0.9v-8.7c0-0.1-0.1-0.2-0.2-0.2h-8.9c-0.5,0-0.9-0.4-0.9-0.9V37.6     c0-0.5,0.4-0.9,0.9-0.9h5.9c0.2,0,0.3-0.2,0.2-0.4c-0.5-0.8-1.7-2.7-2-3.2c-1.3-2.1-2.6-4.3-3.8-6.6c-0.3-0.6-0.9-0.9-1.5-0.9     c0,0,0,0-0.1,0c-0.6,0-1.2,0.4-1.5,0.9c-3.9,7.3-8.5,13.6-12.1,19.3C37.9,51.7,35,57,35,62.7c0,11.1,9.1,20.2,20.2,20.2     c10.7,0,19.5-8.4,20.1-19c0,0,0-0.1-0.1-0.1L66.5,63.8z"></path>
		</g>
		<path class="st3" d="M87.4,41.8h-8.7c-0.3,0-0.6-0.3-0.6-0.6v-8.7c0-0.3-0.3-0.6-0.6-0.6h-5.8c-0.3,0-0.6,0.3-0.6,0.6v8.7    c0,0.3-0.3,0.6-0.6,0.6h-8.7c-0.3,0-0.6,0.3-0.6,0.6v5.8c0,0.3,0.3,0.6,0.6,0.6h8.7c0.3,0,0.6,0.3,0.6,0.6v8.7    c0,0.3,0.3,0.6,0.6,0.6h5.8c0.3,0,0.6-0.3,0.6-0.6v-8.7c0-0.3,0.3-0.6,0.6-0.6h8.7c0.3,0,0.6-0.3,0.6-0.6v-5.8    C88,42.1,87.8,41.8,87.4,41.8z"></path>
	</g>
</g>
</svg>
