<?xml version="1.0" encoding="UTF-8"?>
<!-- Generator: Adobe Illustrator 27.1.1, SVG Export Plug-In . SVG Version: 6.00 Build 0)  -->
<svg xmlns="http://www.w3.org/2000/svg" xmlns:xlink="http://www.w3.org/1999/xlink" version="1.1" id="Ebene_1" x="0px" y="0px" viewBox="0 0 120 120" style="enable-background:new 0 0 120 120;" xml:space="preserve">
<style type="text/css">
	.st0{fill:none;stroke:#5EB1EA;stroke-width:2.5;stroke-linecap:round;stroke-miterlimit:10;}
	.st1{fill:#5EB1EA;}
	.st2{fill:none;stroke:#FFFFFF;stroke-width:3;stroke-linecap:round;stroke-miterlimit:10;}
	.st3{fill:#FFFFFF;}
	.st4{fill:none;stroke:#FFFFFF;stroke-width:3;stroke-miterlimit:10;}
</style>
<g>
	<path class="st0" d="M2.5,56c0,31.8,25.7,57.5,57.5,57.5s57.5-25.7,57.5-57.5"></path>
	<circle class="st1" cx="60.3" cy="54.6" r="48.1"></circle>
	<g>
		<g>
			<path class="st2" d="M87.1,42.1h-6.5c-0.7,0-1.2,0.2-1.5,0.5c-0.5,0.6-0.6,1.4-0.7,2.7c0,1.5,0.2,3.7,0.7,6.5     c0.2,1.1,0.1,2.2-0.1,3.3c-0.3,1-0.8,2-1.4,2.7c-0.6,0.7-1.4,1.3-2.2,1.7c-0.9,0.4-1.9,0.6-2.9,0.6c-1.3,0-2.4-0.3-3.4-0.8     c-1-0.5-1.8-1.2-2.4-2.1c-0.6-0.9-1-2-1-3.1c-0.1-1.2,0.1-2.4,0.6-3.6c1.1-2.6,1.8-4.5,2.3-5.9c0.1-0.4,0.4-1.2,0.4-1.4     c0-0.7-0.5-1.2-1.3-1.2l-8.5,0"></path>
		</g>
		<path class="st3" d="M82.2,28.6c-3.6,3.1-7,7.4-9,12.1c-1.6,3.7-1.3,4.2-3.9,11.3c-0.9,2.3,0.6,4.8,3.1,4.8c1.2,0,4-0.8,3.2-4.9    c-0.9-4.3-0.3-7.8,0.6-11c1.3-4.4,3.6-8.8,6.3-12C82.7,28.7,82.4,28.4,82.2,28.6z"></path>
		<path class="st4" d="M72,65.2c-2.1,0-4-0.4-5.7-1.3C64.5,63,63,61.7,62,60.1c-1.1-1.6-1.7-3.6-1.9-5.6c-0.1-2,0.2-3.9,1-5.8    c0.2-0.6,0.5-1.1,0.7-1.6l-3.2,0c0,0,0,0,0,0c-2.8,0-5-2.2-5-5c0-2.8,2.2-5,5-5l4.6,0l-1.3-2c-1.7-2.7-3.5-5.6-5.1-8.7    c-0.3-0.6-0.9-0.9-1.6-1c0,0,0,0-0.1,0c-0.7,0-1.3,0.4-1.6,1c-4,7.5-8.6,13.8-12.3,19.7c-3.7,5.9-6.6,11.3-6.6,17.1    c0,11.3,9.2,20.5,20.5,20.5c10.8,0,19.7-8.5,20.5-19.1C74.4,65,73.2,65.2,72,65.2z"></path>
	</g>
</g>
</svg>
