<?xml version="1.0" encoding="UTF-8"?>
<!-- Generator: Adobe Illustrator 27.1.1, SVG Export Plug-In . SVG Version: 6.00 Build 0)  -->
<svg xmlns="http://www.w3.org/2000/svg" xmlns:xlink="http://www.w3.org/1999/xlink" version="1.1" id="Ebene_1" x="0px" y="0px" viewBox="0 0 120 120" style="enable-background:new 0 0 120 120;" xml:space="preserve">
<style type="text/css">
	.st0{fill:none;stroke:#328FE6;stroke-width:2.5863;stroke-linecap:round;stroke-miterlimit:10;}
	.st1{fill:#328FE6;}
	.st2{fill:none;stroke:#FFFFFF;stroke-width:3;stroke-linecap:round;stroke-miterlimit:10;}
	.st3{fill:#FFFFFF;}
</style>
<g>
	<path class="st0" d="M2.5,56c0,31.8,25.7,57.5,57.5,57.5s57.5-25.7,57.5-57.5"></path>
	<circle class="st1" cx="60" cy="54.6" r="48.1"></circle>
	<g>
		<g>
			<path class="st2" d="M81.9,57.3l-9.1-0.1c-1,0-1.7,0.2-2.1,0.7c-0.8,0.8-0.9,1.9-1,3.8c-0.1,2.2,0.2,5.1,0.8,9.1     c0.2,1.5,0.1,3.1-0.3,4.5c-0.4,1.4-1.1,2.7-2,3.8c-0.9,1-1.9,1.8-3.1,2.3c-1.2,0.6-2.6,0.8-4,0.8c-1.8,0-3.4-0.4-4.8-1.2     c-1.3-0.7-2.5-1.7-3.3-3c-0.8-1.3-1.3-2.8-1.4-4.4c-0.1-1.6,0.2-3.3,1-5c1.6-3.6,2.6-6.2,3.3-8.2c0.2-0.6,0.5-1.7,0.5-2     c0-1-0.7-1.7-1.8-1.7l-11.8-0.2"></path>
		</g>
		<path class="st3" d="M75.3,38.4c-5,4.2-9.9,10.2-12.8,16.6c-2.3,5.2-1.9,5.8-5.7,15.6c-1.2,3.2,0.8,6.8,4.3,6.8    c1.7,0,5.6-1.1,4.6-6.8c-1.1-6-0.3-10.9,1.1-15.3c1.9-6.1,5.2-12.2,9-16.5C76,38.6,75.6,38.2,75.3,38.4z"></path>
	</g>
	<g>
		<path class="st2" d="M52.4,45.9c0.2-2.2,1.4-4.2,3.4-5.3c1.7-0.9,3.6-1.1,5.3-0.6"></path>
		<path class="st2" d="M44.8,45c0.3-4.6,2.7-8.8,6.7-11.1c3.4-2,7.4-2.2,11-1"></path>
		<path class="st2" d="M38.1,41.8c0.8-6.1,4.3-11.7,10.1-14.9c4.8-2.7,10.3-3.2,15.3-1.8"></path>
	</g>
</g>
</svg>
