<?xml version="1.0" encoding="UTF-8"?>
<!-- Generator: Adobe Illustrator 27.1.1, SVG Export Plug-In . SVG Version: 6.00 Build 0)  -->
<svg xmlns="http://www.w3.org/2000/svg" xmlns:xlink="http://www.w3.org/1999/xlink" version="1.1" id="Ebene_1" x="0px" y="0px" viewBox="0 0 120 120" style="enable-background:new 0 0 120 120;" xml:space="preserve">
<style type="text/css">
	.st0{fill:none;stroke:#2569A8;stroke-width:2.5;stroke-linecap:round;stroke-miterlimit:10;}
	.st1{fill:#2569A8;}
	.st2{fill:#FFFFFF;}
	.st3{fill:none;stroke:#FFFFFF;stroke-width:3;stroke-linecap:round;stroke-linejoin:round;stroke-miterlimit:10;}
	.st4{fill:none;stroke:#FFFFFF;stroke-width:3;stroke-linecap:round;stroke-miterlimit:10;}
</style>
<g>
	<path class="st0" d="M2.5,56c0,31.8,25.7,57.5,57.5,57.5s57.5-25.7,57.5-57.5"></path>
	<circle class="st1" cx="59.8" cy="54.6" r="48.1"></circle>
	<g>
		<path class="st2" d="M65.6,55.4c-2.9,2.5-5.7,6-7.3,9.8c-1.3,3-1.1,3.4-3.2,9.2c-0.7,1.9,0.5,3.9,2.6,3.9c1,0,3.3-0.7,2.6-4    c-0.7-3.5-0.3-6.3,0.5-8.9c1-3.6,2.9-7.2,5.1-9.7C66,55.5,65.8,55.3,65.6,55.4z"></path>
		<path class="st2" d="M87,55.4c-2.9,2.5-5.5,6-7.1,9.8c-1.3,3-1.1,3.4-3.2,9.2c-0.7,1.9,0.5,3.9,2.6,3.9c1,0,3.3-0.7,2.6-4    c-0.7-3.5-0.3-6.3,0.5-8.9c1-3.6,2.7-7.2,4.9-9.7C87.4,55.5,87.2,55.3,87,55.4z"></path>
		<g>
			<path class="st3" d="M91.8,65.9H92h-5.5c-0.6,0-1,0.1-1.3,0.5c-0.5,0.5-0.5,1.2-0.6,2.3c0,1.3,0.1,3.1,0.6,5.5     c0.2,0.9,0.1,2.2,0,3.1c-0.2,1-0.8,2.4-2,3.2c-1.2,0.8-2.3,1.3-4,1.2c-1.1,0-2.3-0.5-3.1-0.9c-0.8-0.4-3-2.1-3-4.7     c0-1,0.1-2,0.5-3c0.9-2.2,1.5-3.8,1.9-5c0.1-0.3,0.3-1,0.3-1.2c0-0.6-0.5-1-1.1-1l-9.7,0c-0.6,0-1,0.1-1.3,0.5     c-0.5,0.5-0.5,1.2-0.6,2.3c0,1.3,0.1,3.1,0.6,5.5c0.2,0.9,0.1,2.2,0,3.1c-0.2,1-0.8,2.4-2,3.2c-1.2,0.8-2.3,1.3-4,1.2     c-1.1,0-2.3-0.5-3.1-0.9c-0.8-0.4-3-2.1-3-4.7c0-1,0.1-2,0.5-3c0.9-2.2,1.5-3.8,1.9-5c0.1-0.3,0.3-1,0.3-1.2c0-0.6-0.5-1-1.1-1     l-9.7,0c-0.6,0-1,0.1-1.3,0.5c-0.5,0.5-0.5,1.2-0.6,2.3c0,1.3,0.1,3.1,0.6,5.5c0.2,0.9,0.1,2.2,0,3.1c-0.2,1-0.8,2.4-2,3.2     c-1.2,0.8-2.3,1.3-4,1.2c-1.1,0-2.3-0.5-3.1-0.9c-0.8-0.4-3-2.1-3-4.7c0-1,0.1-2,0.5-3c0.9-2.2,1.5-3.8,1.9-5     c0.1-0.3,0.3-1,0.3-1.2c0-0.6-0.5-1-1.1-1l-3.9,0h-0.2"></path>
		</g>
		<path class="st2" d="M44,55.4c-2.9,2.5-5.7,6-7.3,9.8c-1.3,3-1.1,3.4-3.2,9.2c-0.7,1.9,0.5,3.9,2.6,3.9c1,0,3.3-0.7,2.6-4    c-0.7-3.5-0.3-6.3,0.5-8.9c1-3.6,2.9-7.2,5.1-9.7C44.4,55.5,44.2,55.3,44,55.4z"></path>
	</g>
	<g>
		<path class="st4" d="M52.6,48.3c1.8-2.2,4.6-3.6,7.7-3.3c2.6,0.2,4.8,1.5,6.3,3.3"></path>
		<path class="st4" d="M44.9,41.7c3.8-4.8,9.5-7.7,15.6-7.3c5.2,0.4,9.7,3,12.9,7"></path>
		<path class="st4" d="M39.9,33.2c5.4-6.1,13.4-9.7,22.1-9c7.3,0.6,13.7,4.1,18.1,9.3"></path>
	</g>
</g>
</svg>
