<?xml version="1.0" encoding="UTF-8"?>
<!-- Generator: Adobe Illustrator 27.1.1, SVG Export Plug-In . SVG Version: 6.00 Build 0)  -->
<svg xmlns="http://www.w3.org/2000/svg" xmlns:xlink="http://www.w3.org/1999/xlink" version="1.1" id="Ebene_1" x="0px" y="0px" viewBox="0 0 120 120" style="enable-background:new 0 0 120 120;" xml:space="preserve">
<style type="text/css">
	.st0{fill:none;stroke:#16487A;stroke-width:2.5;stroke-linecap:round;stroke-miterlimit:10;}
	.st1{fill:#16487A;}
	.st2{fill:#FFFFFF;}
	.st3{fill:none;stroke:#FFFFFF;stroke-width:3.0934;stroke-linecap:round;stroke-linejoin:round;stroke-miterlimit:10;}
	.st4{fill:none;stroke:#FFFFFF;stroke-width:2.9466;stroke-linecap:round;stroke-linejoin:round;stroke-miterlimit:10;}
</style>
<g>
	<path class="st0" d="M2.5,56c0,31.8,25.7,57.5,57.5,57.5s57.5-25.7,57.5-57.5"></path>
	<circle class="st1" cx="60.1" cy="54.6" r="48.1"></circle>
	<g>
		<path class="st2" d="M47.6,33.2C47.5,33.2,47.5,33.2,47.6,33.2c-0.6,0-1.2,0.3-1.4,0.8c-3.5,6.6-7.6,12.2-10.8,17.3    c-3.3,5.2-5.8,10-5.8,15.1c0,10,8.1,18.1,18.1,18.1c10,0,18.1-8.1,18.1-18.1c0-4.4-1.9-8.7-4.6-13.1l1.6-1.3l-7.4-3.5l1.6,8    l1.6-1.2c2.4,4.1,4,7.7,4,11.1c0,8.2-6.6,14.9-14.9,14.9c-8.2,0-14.9-6.6-14.9-14.9c0-4,2.1-8.3,5.3-13.3c2.8-4.4,6.3-9.3,9.6-15    c1.1,1.9,2.2,3.8,3.3,5.5c0.2,0.3,0.4,0.7,0.7,1c0.6-1,1.3-1.9,1.9-2.9c-1.5-2.4-3.1-4.9-4.5-7.6C48.7,33.5,48.1,33.2,47.6,33.2z"></path>
		<path class="st2" d="M61,33.2C60.9,33.2,60.9,33.2,61,33.2c-0.6,0-1.2,0.3-1.4,0.8c-1.5,2.9-3.2,5.6-4.9,8.2    c0,0.1-0.1,0.1-0.1,0.2c-0.6,1-1.3,2-1.9,2.9c0,0.1-0.1,0.1-0.1,0.2c-1.3,2-2.6,4-3.8,5.9c-3.3,5.2-5.8,10-5.8,15.1    c0,3.2,0.8,6.1,2.3,8.7l-1.6,1.2l7.4,3.5l-1.6-8l-1.6,1.3c-1-2-1.6-4.3-1.6-6.8c0-4,2.1-8.3,5.3-13.3c0.8-1.2,1.6-2.5,2.4-3.7    c0-0.1,0.1-0.1,0.1-0.2c0.6-0.9,1.3-1.9,1.9-2.9c0-0.1,0.1-0.1,0.1-0.2c1.6-2.5,3.3-5.2,5-8c3.3,5.7,6.8,10.6,9.6,15    c3.2,5,5.3,9.3,5.3,13.3c0,8.2-6.6,14.9-14.9,14.9c-0.3,0-0.6,0-0.9,0c-1.2,1-2.5,1.9-3.9,2.6c1.5,0.4,3.2,0.7,4.8,0.7    c10,0,18.1-8.1,18.1-18.1c0-5.1-2.5-9.9-5.8-15.1c-3.3-5.2-7.3-10.7-10.8-17.3C62.1,33.5,61.5,33.2,61,33.2z"></path>
	</g>
	<g>
		<path class="st3" d="M72.4,39.2c2,0,3.9,1,5.1,2.8c1,1.5,1.2,3.3,0.8,4.9"></path>
		<path class="st4" d="M72.8,32.2c4.3,0,8.3,2,10.6,5.6c2,3,2.5,6.6,1.6,10.1"></path>
		<path class="st3" d="M75.3,25.8c5.6,0.4,11,3.3,14.3,8.4c2.8,4.3,3.6,9.3,2.6,13.9"></path>
	</g>
</g>
</svg>
