<svg xmlns="http://www.w3.org/2000/svg" xmlns:xlink="http://www.w3.org/1999/xlink" width="482.262" height="24.952" viewBox="0 0 482.262 24.952">
  <defs>
    <clipPath id="clip-path">
      <rect id="Rectangle_5715" data-name="Rectangle 5715" width="482.262" height="24.952" fill="#5799f1"/>
    </clipPath>
  </defs>
  <g id="Group_33445" data-name="Group 33445" transform="translate(0 0)">
    <g id="Group_33444" data-name="Group 33444" transform="translate(0 0)" clip-path="url(#clip-path)">
      <path id="Path_43916" data-name="Path 43916" d="M324.155,21.675a.453.453,0,0,0-.477-.485c-.954.066-1.207-.567-1.819-.831-.921.677-2.142.4-3.241.513-.668-.133-.164-1.191-1.418-.894a1.388,1.388,0,0,1-.864-.137c-1.048-.662-3.339.022-2.65.425a1.3,1.3,0,0,1,.709,1.42c-.135,1.1,1.818.534-.2,2.1-.8-.839-2.388-.888-3.259-1.673-.022-.02-1.554.083-1.985-.44-.95-1.152-5.863-.783-6.639-.762-1.147-1.177-4.262.357-4.968.15-1.408-.414-.3-.807-2.757-.825-6.959,4.575-9.578.73-10.865,1.581a1.777,1.777,0,0,1-1.733.028c.195-.919-2.569-.953-3.011-1.5a.5.5,0,0,0-.214.057c-1.774,1.305-3.861-.754-4.6.205s.35.743-3.586.868c-.636-.191-.125-1-1.184-.9-2.705.269-4.894.361-3.225-1.043L264.5,18.44c-2.261.072-1.337.145-1.574,1.11-.153.623-2.3.439-.68-.817-1.295-.785-.919-.8-1.576.283-.481-.4-.34.048-.608-2.128-.951-.282-.336-1.514-1.035-1.5-3.727.079-2.634-.21-2.729,2.311,4.279,2.193.316,2.306,4.737,2.879-.151.133-.857.813-.994.689-.679-.615-1.621-.187-2.4-.33-.527-.1-.967-.594-1.444.051-.76,1.028-6.083-3.709-7.934-1.518-.743-1.353-.563-1.116-1.634.415a6.451,6.451,0,0,1-2.88-1.274c-2.054,1.368-1.405-.689-3.3.108a5.236,5.236,0,0,0-2.207-1.014c-1.275-.717-1.269.152-1.383.405-.2.453-1.623.125-1.233,1-3.13,2.455-.806.633-5.247.429-.852-.04-.4-.628-.824-.83-.665.093-.78.633-1.455.795-1.412-.868-1.166-.826-1.946-.774-2.194.146.168.853-.672,1.4l-2.218-.652c-3.305-2.283-3.988,1.012-5.421-.429l-3.44.109c-.289.379-.018,1.037-1.065.9a1.462,1.462,0,0,0-1.335.521c-.853-.812-2.37-.942-3.307-1.683a2.331,2.331,0,0,0-1.23-.024c-.656.1-.185.527-.668.9-.726-.307-.1-.969-1.067-.855-1.782.211-.973,1.433-1.384,1.8-.644-.072-.88-.6-1.413-.717a3.14,3.14,0,0,1-1.361-.468c-2.34-1.894-2.928-.073-4.53-1.145-.606-.406-.246,1.1-.817.719-.975-.651-2.065-.135-3.191-.291-3.123-2.171-2.243-2.065-4.383-.4,1.34,1.4.873,1.494,1.574,1.46.853-.041.282-.415.949-.916.609.789.4.866.956.616,1.212-.54,1.891-.018.4,1.139-4.709.15-3.6.4-4.871-.945-.382-.4-1.259-.143-1.612-.6a.383.383,0,0,0-.214-.007c-.4.739-1.581.2-2.216.7-.464.365-.925.3-2.543.3-5.884-.01-5.577-2.611-6.612-2.572-.18.007-2.61.934-1.625,1.783.466.4.469.973,1.15,1.286,1.766.807-5.719.949-6.344.705-.027-.128-.243-1.189-.453-1.174-1.868.138-1.315-2.085-4.49.007-.812.535-1.463-.852-2.2-.178-1.132,1.037-4.77.947-4.969.953-1.339-.77-1.111.269-1.407-.024-.719-.717-1.836-.105-2.668-.4-1.184-.426-.7-1.679-1.667-.922-.47.37-.468.372.185.852-4.17,2.852-4.76-.143-7.936-.455-.361-.035-.549-.14-.592-.415-.274-1.731-.666-.457-1.4-.2,2.38,3.252,1.787,1.538-3.37,1.7-.474-.308-.89-.8-1.269-.783-1.636.058-.038-1.007-2.805-.919-1.474,3.677-1.541.6-3.719,1.939-1.961-1.273-2.092-1.1-2.255.183-.217,1.708-5.163-2.659-5.225-.151-.3.236.026.167-2.915.261a6.289,6.289,0,0,0-3.693-1.213c-.867.02-.228.876-.972.933-2.184.168-.93-.568-3-.344-.973.105-1.647-.761-2.68-.385l-1.442-.853c-.234.154-.473.441-.7.436-1.595-.039-3.708,1.489-4.8.849a2.165,2.165,0,0,0-.819-.174c-.446.748-1.655.253-2.212.687-.413.323-.563.123-.957.01a11.654,11.654,0,0,0-2.169-.152c-1-.3-2.147-2.139-2.9-.667-.331.649-.9.409-1.647-.007-.774.513-.562.466-.916.245-2.943-1.831-3.308,1.024-4.208.338a4.089,4.089,0,0,0-3.822.069c-.969-.228-1.355-1.074-2.508-1.269-1.593.845-3.281,2.156-4.921.52-.422-.421-1.2-.189-1.64-.583A10.224,10.224,0,0,0,69.7,20c-1.139.884-1.092.975-1.571.741-2.991-1.465-1.368-.008-1.435.122-.416.813-4.3,1.563-5.232,2.12-.718-.2-1.018-.972-2.048-.83-1.853-.606-1.623-.489-2.886.348-1.222.809-.871-.675-2.243.282-1.418-.834-.717.383-1.627-.138-.819-.469-.786.285-1.486-.973-2.124-.972-3.835,1.555-5.2.613-1.016-.7-1.064,1.11-3.932.423-.894-.214.026-.312.067-.766-.478-.28-1.026-.048-1.537-.09-.416.812-1.891.191-2.4.889a.323.323,0,0,1-.214.046c-1.011-.8-1.813-.089-2.759.114-2.005.43-1.565-.167-3.735-.735-.468-.122-1.1.1-1.6,0a6.267,6.267,0,0,0-2.369-.383c-2.106.294-2.714-.235-3.663.491-1.263.965-4.967-2.84-4.624-4.135.135-.51-.033-.468-1.4-1.357,2.865-.977,8.778-.892,6.392-2.982.654-.7,2.046-.778,2.625-1.618a7.34,7.34,0,0,1,3.607.264c.613.271,1.7-.258,2.366.36.133.125.851-.8,1.5-.291.567.44,1.2.214,1.8.251.43-.639.873-.216,1.423-.073.468.122,1.1-.1,1.6,0,.734.146,1.414.805,2.1-.037,1.325.034,2.733-.563,3.954.262,3.034.018,1.459,1.329,3.9-.562l2.39-.076c1.825-1.516,5.436.551,6.408-.486.566-.6.326.767,2.058-.085,1.581-.778,3.679.209,4.188.181,7.418-.414,4.948-1.368,7.42.037,1.451.825,1.823-1.878,3.983-.5.72-.127-.065-.366,6.018-.559.471-.687-2.017-.493-3.268-1.632-1.108-.305-2.892.293-4-.316a5.22,5.22,0,0,0-1.855-.069c-1.118.826-2.6.442-3.917.581-1.686.178-1.429.114-2.735-1.178-.088.257-.348,1.29-.671,1.275-.724-.035-1.475.259-2.18-.1a1.556,1.556,0,0,0-.816-.235c-1.6.365-4.481-1.5-5.409-.337-3.755,0-2.008-.856-3.772.514-3.882-1.257-3.407,1.04-5.326-.186-7.467.236-6.15-.042-7.772,1.157-2.586.082-2.282.177-3.1-.244-1.088-.555-1.4,1.4-3.551-.119-1.154-.816-3.281,1.139-3.72.647-1.022-1.146-.89,1.588-4.254-1.2-2.122.067-2.4.02-2.513.251-.837,1.775-1.273.559-4.6-.472-.278-.086-.707-.091-.7-.312.011-.956-2.383-.834-2.585.556-.3,2.064-4.7,0-5,.113a2.56,2.56,0,0,0-.557.412C8.274,8.062,8.82,9.934,6.094,8.3c-.329-.2-1.062-.113-1.068.134-.041,1.835-2.516,2.07-3.535,1.33C1.209,9.558-.047,9.921,0,9.627a1.067,1.067,0,0,1,.149-.319c.881.2,1.1-.761,1.96-.565.694-1.356.244-.813,1.833-.081.441-.081.253-2.545,8.5-3a1.665,1.665,0,0,0,.8-.274c.555-.4.622.168,1.175.223C50.72,4.462,50.39,3.495,50.666,3.7c.751.569.67-.223,1.506-.2,4.318.1,6.127.729,7.6-.221.891-.576,52.906.641,53.518.319,1.912-1.009,3.482.711,6.53-.289,1.391-.457.2.345,2.6.263,6.773-.23,6.641-.31,7.286.148.172.123,3.3.232,3.863-.479.61.563.732.414,7.193.209.478.282.907.783,1.582.213,1.074-.907,1.8.143,3.484.088,9.714-.316,9.211-.433,9.835.1.676-.035,5.33-.2,5.929-.566,1.222,1.094,7.73-.721,10.4,1.013.2-.317.33-.841.59-.875a3.59,3.59,0,0,0,1.32-.545c.806-.411,2.026.542,2.991.366A4.1,4.1,0,0,1,178.81,3.2c2.562,1.024,14.617-.749,15.9.36a1.306,1.306,0,0,0,.82-.164c1.094-.894,1.5.331,2.03-.114a.992.992,0,0,1,1.095-.2c1.043.481,0,.438,7.913.114,1.11-.045.841-1.086,2.387-.064,1.185-.037,2.38-.148,3.557-.082.587.033.617-.76,1.216-.336,1.286.91,13.323.3,16.164.225,2.538-.067,4.378.945,5.656-.15a.847.847,0,0,1,.6-.048c.88.718,2.017.244,3.015.374.564.073.813-.923,1.469-.174,2.62.1,2.773-.039,3.354.352.245.165.631-.419,1.239-.41,1.38.02,2.146-.048,5.392-.15.705-1.649.345-.489,1.5-.534a4.014,4.014,0,0,1,1.734.4c.485.186,1.275-.155,1.749.329.189.193.709-.428.4-.565a13.742,13.742,0,0,0-1.329-.454c2.061-1.105,1.538.892,3.551-.313,3.82,2.171,5.368.454,8.392,1.647,3.474-2.571,4.351.184,5.343-.785.65-.634,1.557-.381,2.695-.513,1.78-2.145,1.031.129,1.814.421.988-1.905,2.567-1.678,3.072-1.092.634-.131.864-.579,1.325-.85.439.283,1.106.414,1.1.982,0,.281,1.147,1.028,1.312-1.014a5.6,5.6,0,0,1,1.63.431c.763.562,1.619.3,2.423.265.532-.02.389-.446.459-.81,3.058-.425,2.617.579,3.1.1.628-.628,1.587-.223,2.463-.378.46,1.186,2.518,2.413,3.577,1.439A18.168,18.168,0,0,1,299.149.286c1.641-.181,1.338.068,1.8.764,1.5-.243-.409-.8,3.541-.923,1.978,1.627.982,1.311,4.518,1.2.1-.244.31-1.522,1.47-.728.7.478,1.5-.013,2.781.182.564.086,1,.5,1.717.383.525-.086.749.131.776.5.041.566,1.375.442,1.268.007-.3-1.222,5.18-1.573,5.217-.054.022.871.245.291,1.38.92.7.387.77-.412.251-.715-.342-.2-1.147.065-.988-.574.106-.429.153-.35,3.527-.457,1.655,1.074.816.887,4,.787.371.5.462,1.083,1.51.9a2.727,2.727,0,0,1,1.761.317,5.373,5.373,0,0,0,1.885.016c1.473,1.12,4.819-.376,6,.732.5-.086,1.117.147,1.494-.236a1.452,1.452,0,0,1,1.428-.292c1.84.764,3.718.126,5.445.276,1.484-1.152.829-1.023,3.791-1.05.348,0,.931-.187.923.259-.005.267-.533.147-.828.2-.363.064-.106.438.074.439,2.676.025,2.095-.162,2.164-.919.11-1.223,1.3-.076,2.429-.126,1.928-.086,3.859-.132,5.737-.191.223.337.323.761.577.815a4.986,4.986,0,0,0,2.793-.608c.75-.813.371.482,1.836-.314.476.514.719.38,5.261.236.573,2.1,3.125,1.742,4.473,1.7.981-.669,1.6-1.326,2.25-.754,2.713,2.373,2.728.261,6.869-.5.3-.056.378-.611.907-.211s.78-.255.879-.2c1.284.756,2.147-.01,2.386.676.216.619-.044,1.046.758,1,.825-.051.424-.489.564-1.084.172-.726,1.324-.056,2.088.076,1.259.218,1.5-.1.559.717,1.265.645,1.331-.442,1.56-.761.95-1.321,2.582.04,3.348-.1,1.319-.236,2.185-.248,2.2.577.03,2.319,8.863,1.163,9.346,3.19.866-.028,1.6-.076,2.337-.066.779.011,1.352-.965,1.527-.038.186.969.689-.253,1.553-.058.624.14-.313.992-.918.932a2.24,2.24,0,0,0-1.834.754c1.914.725-1.122,1.714,2.913,1.525,2.974-.139.982-2.124.947-2.251-.06-.215.151-.79.566-.366.469.479,1.211.084,1.78.272.478.3.159.72.3,1.078,1.815.592,1.742.828,2.574-.2,1.2-1.485,1.533-.044,3.324-.219a2.919,2.919,0,0,1,1.451.295c3.588,1.414,5.675-.4,6.607.366l.871-.6c3.882,2.544,1.828.888,4.311.443,2.552-.081,1.267.745,2.74-.069a7.972,7.972,0,0,0,2.131-.282c1.785-.982,3.831-1.22,5.323.025,5.722-.2,4.614-2.93,7.109-.607.707-.463,1.229-.933,1.954-.272.419.381.74-.948,3.087-.208,1.71.54,1.029-.385,1.783-.157.559.168,2.039,1,3.147.7,2.455-.653,3.776,2.11,5.629,2.612.984.267.958.339.091,1.165,2.454,1.222,1.491,1.036,4.179.951,2.687,1.829,1.949,2.153,3.081,1.6,3.018-1.477-2.96,4.45-6.048,2.7-.2-.115-1.48-.074-1.486.465-.008.653,2.057.432,1.966.661-.257.619,1.084.768.8,1.412-.346.777.321.3-2.951,1.576-1.553-1.008-.638-3.213-4.025-.583.189.725,1.21.619,1.824.92.449,1.634.174,2.337-3.793,1.052-.12-1.894-1.726-.474-2.079-1.581-.467-1.463-2.6-.157-2.665-1.384-.011-.226-.361-.28-.712-.313a4.8,4.8,0,0,1-1.078-.367c-.172.745-.423,1.472.652,2.09a2.922,2.922,0,0,0-.907.2c-1.451,1.091-1.745,0-2.4.065-.79.082-1.01-.939.044-.928.433.005.5-.537.5-.666-.008-.337-2.685-.461-3.454.224-.04.035-1.912-.907-3.3.17-.532-.585-.781-1.34-2.111-1.381-.747-.024.191-1.269-.816-1.265a1.548,1.548,0,0,0-.776.242c.127.565-.522.795-.893,1.144-.574-.374-.727-4.2-1.069-.96-.091.858-.694.666-1.688.2-.472.332-.1.73-.194,1.092-1,.259-1.736,1.074-3.139.675-.561-3.985-3.074-2.152-4.23-1.824,2.289,1.347,1.935,1.4,3.119.618,1.284.724-.86,1.122-.85,1.858.007.468-.8.675-.651,1.209.059.211-.73.323-1.058.123-2.464-1.5-1.1.284-4.04.962-.452.538-.655-.436-1.169-.082a12.672,12.672,0,0,1-4.522,1.39c-2.932,2.3-2.948,1.878-5.891-.061-.075-1.194-3.246-4.3-3.436-3.487-.145.618,1.483,1.148,3.114,2.452.71.568,3.832.684.852-1.252,2.36-1.939.387-1.346.485-2.154.3-2.469-3.486-2.115-3.944-2.27-1.425-.482-1.452-.443-2.567.378,2.15,2.727,6.631,5.625,3.183,5.734-2.019-1.314-1.668-.863-1.74-2-1.285-.594-2.394.245-3.837-.593-4.168.133-1.87-.083-2.12-1.415s-1.291-1.244-3.023-1.189c-.325.252-.339.107,1.021,1.62a2.316,2.316,0,0,1-1.8.733c-2.21-.112,1.689,2.533,1.412,2.907-.361.487-.589-.1-.89-.118-.725-.048-1.458-.039-2.158-.052-.267-.571-.234-.834-.843-.843-.8-.012-.6.46-.663.59-.132.273-.8.534-.924.375-.578-.76-1.934-.059-2.538-.717-.24-.265-1.065,1.148-2.659.023-.946-.668-12.543-1.467-10.387-3.14-1.215-.954-1.352-.828-2.1-.3-.57.4-.451.182-.344,1.866-1.766,1.083-1.7.491.082,2.716-1.687.417-1.476-.829-3.02-.813-.18,0,.065-.015-.536-1.2-1.31,1.9-1.526.209-2.653.473-.048.012-.323-.235-.3-.342.231-1.143-1.061-1.291-2.047-1.622,1.19-1.806,3.489.452,1.488-2.118-1.734,1.131-1.777.189-4.178,1.764-.788.517-1.2-.172-1.191,1.015.018,1.848-3.9-.947-3.825.016.067.839-1.07,1.088-1.534,1.653-.753-.217-1.053-.987-2.086-.846l-.513-.779c-4.372,1.135-.412,2.056-1.963,2.237-1.038.121-1.77.982-2.183.367-.314-.467.148-.692.5-.964-1.168-.9-.718-.338-3.931-1.215-.134-2.137.135-2.147-1.124-2.094-2.443.1.525,1.081-.591,1.923-.582.44.37.877-.844,1.58-.794.461-5.782-1.037-5.814-1.165-.311-1.238-1.986-1.39-3.111-2-1.058.776-1.478,1.381-2.429.629-1.726-1.364-1.3.262-2.774-.446-.771.432-.378,1.785,1.9,1.4,2.4-.408,1.536.233,1.913,1.192,1.518.693,1.5.276-.243,1.9-1.628-1.057-1.885-1.714-2.823-1.213-2.944,1.57-5.7,1.112-6.22.658-.549-.476-1.924,1.208-3.97.076-.005,0-1.081.577-1.257.43-1.3-1.1-4.9.688-5.686-1.649,1.751-.056,3.73.058,5.145-.841-.009-.143-.375-2.5,1.175-1.448.66.447.855-.266.626-.466-1.324-1.154-1.024-.25-1.6-.21-.64.045-1.377.284-1.646-.275-.387-.8-.651-.69-1.691-.093-1.725-1.119-.684-1.1-.375-1.61.173-.283-.165-.617-.609-.628-1.6-.037.3,2.128-1.658,1-.332.705-.332.705,1.068,1.088.227,3.6-1.669,4.814-1.741,3.123m-12.881-13c-.815.632-2.534-.242-2.942-.686-1.065-1.158-1.518.438-3.148-.228a7.612,7.612,0,0,0-3.9-.02c-.549.953.857.575,1.222.944-1.429,1.184-1.436.825-.238,1.6,2.025-1.169,2.22.967,3.742-.42,1.988-1.814,1.627,1.013,4.922.148,1-.262,1.519.569,2.347.4,1.179-.236.906.615,1.448.888,1.4-2.241.871-.534,4.046-2.671.174-.117.581-1.237-3.514-.176-2.429.629-.934-1.108-3.284.609l-.7-.394m22.68.636c3.635-.009,2.563.757,3.658.131.446-.255-.663-1.014-1.182-1.1-.6-.094-1.239.05-1.749-.368-.1-.08-.324.242-.341.464-.069.886-2.739-.647-2.994-.89-1.732.055-3.642-.091-2.636.911,1.056,1.05-1.506.191-2.126.878-.546.6-3.258-1.625-4.353-1.426-.376.069-.059.991-.371,1.244-1.65,1.34,2.591,1.082,3.247,1.793.193.209.647-.455,3.832-.556,1.247.729.82-.045,1.425-.019,1.81.08.6.87,2.43-.548.966.568.689.646,1.16-.52m-200.714.837c1.508.543,2.341,1.585,3.62,2.191,2.874.056,1.779-2.127,2.761-1.242.25.225.553.2.625-.05.474-1.636-1.173-.768-1.665-1.475-.214-.308.084.4-5.341.576m262.126,8.076c.412.214.841.619,1.227.6,1.045-.052.592.809,1.092.842,1.567.1,2.542,2.469,4.558-.992.48-.823-.754-.094-1.854-.71-1.34-.749-2.261,1.168-3.909.088a.911.911,0,0,0-1.114.172M97.139,8.84c-.567.325-1.235.133-1.851.2-.634.067-.86.692-1.625.587-.182-.025-.4.866.254.833,1.559-.079,3.411-1.165,2.23.229,3.752.63,7.286-5.453.992-1.847m187.6,11.724c4.223-.135,5.07.18.561-2.748-2.8,1.458-3.109,1.013-.561,2.748m56.313,1.319c-.018-.387-.5-.116-1.74-.381-.183-.039-.512-.528.222-.83.336-.138,1.515-.254.253-1.049-1.423-.9-.345.15-3.383.216-1.042.023-.478.919-.293.912,1.862-.069.135.742,1.886,1.686.654.353.191-.1,3.055-.555M293.486,8.275c-1.353,0-.414.548-2.478,1.167.082.1.2.3.24.292a15.152,15.152,0,0,1,2.746.841c.628.138.832-.381,1.31-.488.2-.044.438.008.638-.033,2.465-.513-.889-1.707-2.456-1.779M132.221,9.815c-1.589-.344-3.378.494-4.9-.391-.449-.261-2.725,1.489-.118,1.372.823-.037,1.732.127,2.326-.516.383-.414.715.429,2.322.37.581-.022.6-.054.368-.835m19.965-.73c-.759-.732-3.371-.429-2.814-.053,2.506,1.693,1.735.819,2.941.579.762.527,1.461,1.161,2.75.623-1.121-1.455-.43-1.227-2.877-1.15M264.4,8.857c-1.885,1.464-1.19-1.536-2.167.223-.289.521-.272.768.212.95,3.044,1.152,2.566.368,3.639-.081L264.4,8.857m168.317,3.688c-.2.965,1.154.036,2.414.992.73.553.617.2,1.433-.091,2.928-1.031-3.608-2.025-3.847-.9m-3.9,7.484c-1.117-.745,1.634-.662-1.3-1.621-.257.513-.257.513.3.974-4.072,3.161,3.478,2.3,1,.647M288.737,9.728c-1.9-1.649-1.313-1.346-2.646-.851-.685.255-1.539.081-1.7.4-.391.779,1.152.63,3.079.675.745.666.941-.078,1.266-.226M111.3,11.25c1.412-.656,1.738-.431,1.636-.99-.06-.33-1.813-.766-2-.763-4.133.075-2.512-.115.365,1.753m77.5.3c1.065-.912.712-.592-.218-2.307-1.095.414-1.657-.551-1.539,1.325l1.757.982m78.628,7.045c1.915,1.218,1.859,1.426,2.967.587.76-.575-1.22-.855-1.408-.953-.28-.147-.323-.506-.545-.735-.121-.124-1.114-.478-1.014,1.1M158.589,9.4c1.139,1.078,1.195,1.579,2.815.69.851-.467-.821-2.026-2.815-.69m-44.934.135c.317,1.008,2.514.721,4.135.629.593-.033.152-.63-.078-.9a16.413,16.413,0,0,0-4.057.271m341.9,3.445c-.463.485-1.077.682-1.192,1.148a.966.966,0,0,0,1.115-.085c1.539-1.261.04-1.621-.351-2.5-.092-.206-1.032-.016-1.009.221.112,1.131-.312.981,1.437,1.212M253.3,16.022c.949-.737,1.431-1.039.216-1.391-.416-.12-2.463-1.186-1.743.815a3.579,3.579,0,0,1,1.527.576m175.582-2.337c.061.977-.084,1.3.575,1.36,1.251.12,2.107-.467,1.993-1.219-.048-.314-1.543-.174-2.568-.141M172,9.373c-.5-1.18-2.861-1.029-2.607-.368.338.878,2.179,1.286,2.607.368M229.45,14.25c.5.326,1.11.14,1.523.484.56.465,1.145-.127,1.727-.579-1.785-.962-1.773-.921-3.25.1M179.458,9.6c.643-.021,2.742-.006,2.142-.374-.45-.276-.779-.729-1.555-.57a1.154,1.154,0,0,1-1.086-.284c-.229-.223-1.221-.076.5,1.228m50.275-1.595c-.2-3.141-3.055.021-1.431.041.406,0,.813-.022,1.431-.041M362.739,19.88c1.1-1.809.975-1.151-1.091-1.3-.828-.059-.928.894.009.943a4.264,4.264,0,0,1,1.082.354m102.779-7.357c.875-.679,1.67-1.386-.087-1.382-1.048,0-1.456.378.087,1.382M144.133,10.257c-.1.461.92.489,1.04.357,1.73-1.9-.806-1.391-1.04-.357M359.8,2.471c-1.868.35-2.64-.041-.044,1.395.5-.39.238-.808.044-1.395M350.98,14.541c.65.422,1.077.873,1.752.555.843-.4-.566-1.066-.7-1.19s-.5.206-1.051.636M240.6,9.468c1.959-1.52-.463-.434-1.24-1.147-.432-.4-.958.73.184.781a3.874,3.874,0,0,1,1.056.366m-87.874,8.084c.559-.593.388-1.147-.447-1.527-1.388-.63.647-.385-3.219-3-.307,1.054,2.391,4.082,3.667,4.53m33.751-.114c3.723-.118,2.863.473,3.644.339,1.12-.191-.372-1.032-1.3-.886-2.153.338-5.11-2.186-6.025-1.451.845,1.028,2.657,1.144,3.682,2m187.06,4.255c-.3.538.368.5.828.642,1.116.351.608.634,1.808-.361-1.284-.192-2.241-1-2.636-.282M321.7,24c1.793,0,1.646-.973.26-.93-1.435.046-1.1.929-.26.93" transform="translate(0 0)" fill="#5799f1"/>
    </g>
  </g>
</svg>
