<svg xmlns="http://www.w3.org/2000/svg" xmlns:xlink="http://www.w3.org/1999/xlink" width="97.032" height="17.025" viewBox="0 0 97.032 17.025">
  <defs>
    <linearGradient id="linear-gradient" x1="0.5" x2="0.5" y2="1" gradientUnits="objectBoundingBox">
      <stop offset="0" stop-color="#fffae3"/>
      <stop offset="1" stop-color="#fcc54e"/>
    </linearGradient>
  </defs>
  <g id="Group_33409" data-name="Group 33409" transform="translate(339.516 51.5)">
    <path id="Icon_akar-star" data-name="Icon akar-star" d="M10.258,3.506a.8.8,0,0,1,1.482,0L13.4,8.093a.792.792,0,0,0,.741.506h4.069a.779.779,0,0,1,.489,1.394L15.8,12.6a.774.774,0,0,0-.258.874L16.6,17.955a.788.788,0,0,1-1.206.9l-3.933-2.5a.8.8,0,0,0-.92,0l-3.933,2.5a.789.789,0,0,1-1.206-.9l1.058-4.482A.774.774,0,0,0,6.2,12.6L3.3,9.994A.779.779,0,0,1,3.792,8.6H7.861A.791.791,0,0,0,8.6,8.093l1.656-4.587Z" transform="translate(-341.999 -54)" stroke="#d1983c" stroke-linecap="round" stroke-linejoin="round" stroke-width="1" fill="url(#linear-gradient)"/>
    <path id="Icon_akar-star-2" data-name="Icon akar-star" d="M10.258,3.506a.8.8,0,0,1,1.482,0L13.4,8.093a.792.792,0,0,0,.741.506h4.069a.779.779,0,0,1,.489,1.394L15.8,12.6a.774.774,0,0,0-.258.874L16.6,17.955a.788.788,0,0,1-1.206.9l-3.933-2.5a.8.8,0,0,0-.92,0l-3.933,2.5a.789.789,0,0,1-1.206-.9l1.058-4.482A.774.774,0,0,0,6.2,12.6L3.3,9.994A.779.779,0,0,1,3.792,8.6H7.861A.791.791,0,0,0,8.6,8.093l1.656-4.587Z" transform="translate(-321.999 -54)" stroke="#d1983c" stroke-linecap="round" stroke-linejoin="round" stroke-width="1" fill="url(#linear-gradient)"/>
    <path id="Icon_akar-star-3" data-name="Icon akar-star" d="M10.258,3.506a.8.8,0,0,1,1.482,0L13.4,8.093a.792.792,0,0,0,.741.506h4.069a.779.779,0,0,1,.489,1.394L15.8,12.6a.774.774,0,0,0-.258.874L16.6,17.955a.788.788,0,0,1-1.206.9l-3.933-2.5a.8.8,0,0,0-.92,0l-3.933,2.5a.789.789,0,0,1-1.206-.9l1.058-4.482A.774.774,0,0,0,6.2,12.6L3.3,9.994A.779.779,0,0,1,3.792,8.6H7.861A.791.791,0,0,0,8.6,8.093l1.656-4.587Z" transform="translate(-301.999 -54)" stroke="#d1983c" stroke-linecap="round" stroke-linejoin="round" stroke-width="1" fill="url(#linear-gradient)"/>
    <path id="Icon_akar-star-4" data-name="Icon akar-star" d="M10.258,3.506a.8.8,0,0,1,1.482,0L13.4,8.093a.792.792,0,0,0,.741.506h4.069a.779.779,0,0,1,.489,1.394L15.8,12.6a.774.774,0,0,0-.258.874L16.6,17.955a.788.788,0,0,1-1.206.9l-3.933-2.5a.8.8,0,0,0-.92,0l-3.933,2.5a.789.789,0,0,1-1.206-.9l1.058-4.482A.774.774,0,0,0,6.2,12.6L3.3,9.994A.779.779,0,0,1,3.792,8.6H7.861A.791.791,0,0,0,8.6,8.093l1.656-4.587Z" transform="translate(-281.999 -54)" stroke="#d1983c" stroke-linecap="round" stroke-linejoin="round" stroke-width="1" fill="url(#linear-gradient)"/>
    <path id="Icon_akar-star-5" data-name="Icon akar-star" d="M10.258,3.506a.8.8,0,0,1,1.482,0L13.4,8.093a.792.792,0,0,0,.741.506h4.069a.779.779,0,0,1,.489,1.394L15.8,12.6a.774.774,0,0,0-.258.874L16.6,17.955a.788.788,0,0,1-1.206.9l-3.933-2.5a.8.8,0,0,0-.92,0l-3.933,2.5a.789.789,0,0,1-1.206-.9l1.058-4.482A.774.774,0,0,0,6.2,12.6L3.3,9.994A.779.779,0,0,1,3.792,8.6H7.861A.791.791,0,0,0,8.6,8.093l1.656-4.587Z" transform="translate(-261.999 -54)" stroke="#d1983c" stroke-linecap="round" stroke-linejoin="round" stroke-width="1" fill="url(#linear-gradient)"/>
  </g>
</svg>
