<?xml version="1.0" encoding="UTF-8"?>
<svg id="Ebene_1" xmlns="http://www.w3.org/2000/svg" xmlns:xlink="http://www.w3.org/1999/xlink" version="1.1" viewBox="0 0 60 60">
  <!-- Generator: Adobe Illustrator 30.0.0, SVG Export Plug-In . SVG Version: 2.1.1 Build 123)  -->
  <defs>
    <style>
      .st0 {
        fill: none;
      }

      .st1 {
        fill: #231f20;
      }

      .st2 {
        fill: #ffce31;
      }

      .st3 {
        clip-path: url(#clippath);
      }
    </style>
    <clipPath id="clippath">
      <rect class="st0" x="2.5" y="2.5" width="55" height="55"/>
    </clipPath>
  </defs>
  <g id="Gruppe_33431">
    <g class="st3">
      <g id="Gruppe_33214">
        <path id="Pfad_43815" class="st2" d="M6.1,57.5c-3,0-4.4-2.2-3.1-4.8L27.5,4.5c1.4-2.7,3.6-2.7,4.9,0l24.5,48.2c1.4,2.7,0,4.8-3.1,4.8H6.1Z"/>
        <path id="Pfad_43816" class="st1" d="M26.2,22.3l2.5,16.9c0,.7.7,1.3,1.4,1.3.7,0,1.2-.6,1.3-1.3l2.5-16.9c.5-6.6-8.2-6.6-7.7,0"/>
        <path id="Pfad_43817" class="st1" d="M30,42.3c2.1,0,3.9,1.7,3.8,3.9,0,2.1-1.7,3.9-3.9,3.8-2.1,0-3.8-1.7-3.8-3.9,0-2.1,1.7-3.9,3.9-3.9"/>
      </g>
    </g>
  </g>
</svg>